<svg xmlns="http://www.w3.org/2000/svg" width="1000" height="1400" viewBox="0 0 1000 1400">
<defs>
  <linearGradient id="rarityStroke" x1="0" y1="0" x2="1" y2="1">
    <stop offset="0" stop-color="#8b5cf6"/><stop offset=".5" stop-color="#d8b4fe"/><stop offset="1" stop-color="#8b5cf6"/>
  </linearGradient>
  <filter id="glow" x="-20%" y="-20%" width="140%" height="140%">
    <feGaussianBlur stdDeviation="7" result="b"/><feFlood flood-color="#c084fc" flood-opacity=".65"/>
    <feComposite in2="b" operator="in"/><feMerge><feMergeNode/><feMergeNode in="SourceGraphic"/></feMerge>
  </filter>
</defs>
<rect x="16" y="16" width="968" height="1368" rx="48" fill="none" stroke="#111" stroke-width="20"/>
<rect x="27" y="27" width="946" height="1346" rx="40" fill="none" stroke="url(#rarityStroke)" stroke-width="14" filter="url(#glow)"/>
<rect x="40" y="40" width="920" height="1320" rx="34" fill="none" stroke="#d8b4fe" stroke-width="3"/>
<g id="rarity-badge" transform="translate(38 18)">
  <rect width="180" height="62" rx="20" fill="#151515" stroke="url(#rarityStroke)" stroke-width="5"/>
  <text x="90" y="42" text-anchor="middle" font-family="Arial, Helvetica, sans-serif" font-size="31" font-weight="900" fill="#d8b4fe">SR</text>
</g>
<path d="M25 190 C70 120 125 120 170 25" fill="none" stroke="url(#rarityStroke)" stroke-width="10"/>
<path d="M975 190 C930 120 875 120 830 25" fill="none" stroke="url(#rarityStroke)" stroke-width="10"/>
<path d="M25 1210 C70 1280 125 1280 170 1375" fill="none" stroke="url(#rarityStroke)" stroke-width="10"/>
<path d="M975 1210 C930 1280 875 1280 830 1375" fill="none" stroke="url(#rarityStroke)" stroke-width="10"/>
</svg>